<svg width="454" height="278" viewBox="0 0 454 278" fill="#EEEEE" xmlns="http://www.w3.org/2000/svg">
<line x1="58" y1="39.5" x2="58" y2="65.5" stroke="#52BDA9" stroke-width="2" stroke-linecap="round"/>
<line x1="58" y1="37.5" x2="104" y2="37.5" stroke="#52BDA9" stroke-width="2" stroke-linecap="round"/>
<line x1="106.411" y1="38.4045" x2="175.905" y2="99.089" stroke="#52BDA9" stroke-width="2" stroke-linecap="round"/>
<line x1="175.596" y1="101.855" x2="103.355" y2="140.904" stroke="#52BDA9" stroke-width="2" stroke-linecap="round"/>
<line x1="103" y1="141.5" x2="103" y2="171.5" stroke="#52BDA9" stroke-width="2" stroke-linecap="round"/>
<line x1="101" y1="173.5" x2="75" y2="173.5" stroke="#52BDA9" stroke-width="2" stroke-linecap="round"/>
<line x1="73" y1="171.5" x2="73" y2="154.5" stroke="#52BDA9" stroke-width="2" stroke-linecap="round"/>
<line x1="73" y1="154.5" x2="72" y2="154.5" stroke="#52BDA9" stroke-width="2" stroke-linecap="round"/>
<line x1="70.6584" y1="153.053" x2="59.5528" y2="130.842" stroke="#52BDA9" stroke-width="2" stroke-linecap="round"/>
<line x1="60.6054" y1="128.222" x2="72.7219" y2="123.895" stroke="#52BDA9" stroke-width="2" stroke-linecap="round"/>
<line x1="73" y1="123.5" x2="73" y2="67.5" stroke="#52BDA9" stroke-width="2" stroke-linecap="round"/>
<line x1="73" y1="67.5" x2="58" y2="67.5" stroke="#52BDA9" stroke-width="2" stroke-linecap="round"/>
<line x1="103" y1="75.5" x2="103" y2="106.5" stroke="#52BDA9" stroke-width="2" stroke-linecap="round"/>
<line x1="102.469" y1="106.166" x2="125.666" y2="95.0312" stroke="#52BDA9" stroke-width="2" stroke-linecap="round"/>
<line x1="125.591" y1="95.6225" x2="102.123" y2="75.9089" stroke="#52BDA9" stroke-width="2" stroke-linecap="round"/>
<line x1="170" y1="37.5" x2="170" y2="70.5" stroke="#52BDA9" stroke-width="2"/>
<line x1="169" y1="69.5" x2="186" y2="69.5" stroke="#52BDA9" stroke-width="2"/>
<line x1="186" y1="70.5" x2="186" y2="172.5" stroke="#52BDA9" stroke-width="2"/>
<line x1="185" y1="171.5" x2="218" y2="171.5" stroke="#52BDA9" stroke-width="2"/>
<line x1="217.517" y1="171.624" x2="295.517" y2="128.624" stroke="#52BDA9" stroke-width="2"/>
<line x1="295.529" y1="130.382" x2="250.529" y2="106.382" stroke="#52BDA9" stroke-width="2"/>
<line x1="250.5" y1="104.634" x2="295.5" y2="78.6341" stroke="#52BDA9" stroke-width="2"/>
<line x1="295.526" y1="80.3805" x2="217.526" y2="38.3805" stroke="#52BDA9" stroke-width="2"/>
<line x1="218" y1="38.5" x2="171" y2="38.5" stroke="#52BDA9" stroke-width="2"/>
<line x1="219" y1="70.5" x2="219" y2="92.5" stroke="#52BDA9" stroke-width="2"/>
<line x1="217.491" y1="91.6391" x2="239.491" y2="78.6391" stroke="#52BDA9" stroke-width="2"/>
<line x1="239.621" y1="80.4255" x2="217.621" y2="71.4255" stroke="#52BDA9" stroke-width="2"/>
<line x1="219" y1="119.5" x2="219" y2="141.5" stroke="#52BDA9" stroke-width="2"/>
<line x1="217.491" y1="140.639" x2="239.491" y2="127.639" stroke="#52BDA9" stroke-width="2"/>
<line x1="239.621" y1="129.426" x2="217.621" y2="120.426" stroke="#52BDA9" stroke-width="2"/>
<line x1="307" y1="45.5" x2="335" y2="45.5" stroke="#52BDA9" stroke-width="2"/>
<line x1="308" y1="46.5" x2="308" y2="173.5" stroke="#52BDA9" stroke-width="2"/>
<line x1="307" y1="172.5" x2="335" y2="172.5" stroke="#52BDA9" stroke-width="2"/>
<line x1="334" y1="173.5" x2="334" y2="141.5" stroke="#52BDA9" stroke-width="2"/>
<line x1="335.588" y1="140.691" x2="368.588" y2="164.691" stroke="#52BDA9" stroke-width="2"/>
<line x1="369" y1="165.5" x2="369" y2="240.5" stroke="#52BDA9" stroke-width="2"/>
<line x1="368" y1="239.5" x2="397" y2="239.5" stroke="#52BDA9" stroke-width="2"/>
<line x1="396" y1="240.5" x2="396" y2="150.5" stroke="#52BDA9" stroke-width="2"/>
<line x1="396.407" y1="151.305" x2="358.407" y2="123.305" stroke="#52BDA9" stroke-width="2"/>
<line x1="358.264" y1="122.823" x2="393.264" y2="84.8225" stroke="#52BDA9" stroke-width="2"/>
<line x1="394" y1="85.5" x2="357" y2="85.5" stroke="#52BDA9" stroke-width="2"/>
<line x1="357.761" y1="85.1485" x2="334.761" y2="112.148" stroke="#52BDA9" stroke-width="2"/>
<line x1="334" y1="111.5" x2="334" y2="46.5" stroke="#52BDA9" stroke-width="2"/>
</svg>
