<svg width="343" height="202" viewBox="0 0 343 202" fill="none" xmlns="http://www.w3.org/2000/svg">
<path d="M252.534 4.11678H251.534L251.534 5.11678L251.534 132.117L251.534 133.117H252.534H278.534H279.534V132.117V101.276L312.534 125.126V199.117V200.117H313.534H340.534H341.534V199.117V110.532V110.026L341.127 109.726L304.139 82.4954L337.91 45.7939L339.453 44.1168H337.174H301.789H301.335L301.036 44.4593L279.534 69.098V5.11678V4.11678H278.534H252.534Z" fill="url(#paint0_linear_17_236)" stroke="white" stroke-width="2"/>
<path d="M115.422 4.23629L114.424 4.2388V5.23629V36.2363V37.2363H115.424H130.421L130.13 138.233L130.128 139.236H131.13H163.424H163.682L163.907 139.112L240.386 96.9531L242.009 96.0587L240.371 95.1932L197.25 72.407L239.989 47.0656L241.513 46.1622L239.952 45.3244L163.423 4.23574L163.2 4.11615L162.948 4.11679L115.422 4.23629ZM166.547 105.356V88.1418L183.612 95.8901L166.547 105.356ZM183.612 46.6332L166.547 56.0993V38.8849L183.612 46.6332Z" fill="url(#paint1_linear_17_236)" stroke="white" stroke-width="2"/>
<path d="M1.72318 32.2367V33.2367L2.7232 33.2367L16.7232 33.2363L16.7232 87.8304L3.16089 92.788L2.11563 93.1701L2.60693 94.1687L15.1571 119.678L15.4319 120.236H16.0543H16.7232V138.236V139.236H17.7232H47.7232H48.7123L48.7231 138.247L49.0718 106.234L122.707 65.5405L123.974 64.8403L122.871 63.9031L49.3705 1.4741L49.0905 1.23627H48.7232H2.72318H1.72318V2.23627V32.2367ZM68.5295 60.1082L48.7232 69.6449V42.4662L68.5295 60.1082Z" fill="url(#paint2_linear_17_236)" stroke="white" stroke-width="2" stroke-linecap="round"/>
<defs>
<linearGradient id="paint0_linear_17_236" x1="296.534" y1="5.11678" x2="296.534" y2="199.117" gradientUnits="userSpaceOnUse">
<stop stop-color="#F18AB9"/>
<stop offset="1" stop-color="#D8AEB9"/>
</linearGradient>
<linearGradient id="paint1_linear_17_236" x1="177.664" y1="5.11678" x2="177.664" y2="138.236" gradientUnits="userSpaceOnUse">
<stop stop-color="#F18AB9"/>
<stop offset="1" stop-color="#D8AEB9"/>
</linearGradient>
<linearGradient id="paint2_linear_17_236" x1="62.4732" y1="2.23627" x2="62.4732" y2="138.236" gradientUnits="userSpaceOnUse">
<stop stop-color="#F18AB9"/>
<stop offset="1" stop-color="#D8AEB9"/>
</linearGradient>
</defs>
</svg>
